<svg width="21" height="20" viewBox="0 0 21 20" fill="none" xmlns="http://www.w3.org/2000/svg">
<path d="M11.7289 1.50965L13.4889 5.02965C13.7289 5.51965 14.3689 5.98965 14.9089 6.07965L18.0989 6.60965C20.1389 6.94965 20.6189 8.42965 19.1489 9.88965L16.6689 12.3696C16.2489 12.7896 16.0189 13.5996 16.1489 14.1796L16.8589 17.2496C17.4189 19.6796 16.1289 20.6196 13.9789 19.3496L10.9889 17.5796C10.4489 17.2596 9.55893 17.2596 9.00893 17.5796L6.01893 19.3496C3.87893 20.6196 2.57893 19.6696 3.13893 17.2496L3.84893 14.1796C3.97893 13.5996 3.74893 12.7896 3.32893 12.3696L0.848932 9.88965C-0.611068 8.42965 -0.141067 6.94965 1.89893 6.60965L5.08893 6.07965C5.61893 5.98965 6.25893 5.51965 6.49893 5.02965L8.25893 1.50965C9.21893 -0.400352 10.7789 -0.400352 11.7289 1.50965Z" fill="#FFA033"/>
</svg>
